<svg xmlns="http://www.w3.org/2000/svg" width="138" height="126" fill="none"><path fill="#F3C3AF" d="m25.976 38.773 38.91 12.287a13.66 13.66 0 0 0 8.227 0l38.911-12.287C109.782 16.99 91.374 0 69 0 46.624 0 28.218 16.99 25.976 38.773z"/><path fill="#1C62EB" d="M75.873 63.842a22.765 22.765 0 0 1-13.746 0L12.56 48.145C6.69 46.286.705 50.67.705 56.826V72.66a9.106 9.106 0 0 0 3.884 7.46l59.19 41.432a9.105 9.105 0 0 0 10.443 0l59.189-41.432a9.107 9.107 0 0 0 3.884-7.46V56.826c0-6.157-5.985-10.54-11.855-8.68L75.873 63.841z"/></svg>